# AST/ASF file generated using VICON BodyLanguage
# -----------------------------------------------
:version 1.10
:name VICON
:units
  mass 1.0
  length 0.45
  angle deg
:documentation
   .ast/.asf automatically generated from VICON data using
   VICON BodyBuilder and BodyLanguage model FoxedUp or BRILLIANT.MOD
:root
   order TX TY TZ RX RY RZ
   axis XYZ
   position 0 0 0  
   orientation 0 0 0 
:bonedata
  begin
     id 1 
     name lhipjoint
     direction 0.630082 -0.636569 0.44472 
     length 2.82754 
     axis 0 0 0  XYZ
  end
  begin
     id 2 
     name lfemur
     direction 0.34202 -0.939693 0  
     length 7.26371  
     axis 0 0 20  XYZ
    dof rx ry rz
    limits (-160.0 20.0)
           (-70.0 70.0)
           (-60.0 70.0)
  end
  begin
     id 3 
     name ltibia
     direction 0.34202 -0.939693 0   
     length 7.88616   
     axis 0 0 20   XYZ
    dof rx
    limits (-10.0 170.0)
  end
  begin
     id 4 
     name lfoot
     direction 0.0603448 -0.165796 0.984312   
     length 1.77861   
     axis -90 7.62852e-016 20   XYZ
    dof rx rz
    limits (-45.0 90.0)
           (-70.0 20.0)
  end
  begin
     id 5 
     name ltoes
     direction 1.53577e-011 -4.21876e-011 1   
     length 0.902235   
     axis -90 7.62852e-016 20   XYZ
    dof rx
    limits (-90.0 20.0)
  end
  begin
     id 6 
     name rhipjoint
     direction -0.656778 -0.61817 0.431866   
     length 2.9117  
     axis 0 0 0  XYZ 
  end
  begin
     id 7 
     name rfemur
     direction -0.34202 -0.939693 0   
     length 6.81603   
     axis 0 0 -20   XYZ
    dof rx ry rz
    limits (-160.0 20.0)
           (-70.0 70.0)
           (-70.0 60.0)
  end
  begin
     id 8 
     name rtibia
     direction -0.34202 -0.939693 0   
     length 8.05997   
     axis 0 0 -20   XYZ
    dof rx
    limits (-10.0 170.0)
 end
 begin
     id 9 
     name rfoot
     direction -0.0862404 -0.236944 0.967688   
     length 1.84899  
     axis -90 -7.62852e-016 -20   XYZ
    dof rx rz
    limits (-45.0 90.0)
           (-20.0 70.0)
  end
  begin
     id 10 
     name rtoes
     direction -1.53561e-011 -4.21798e-011 1   
     length 0.931579   
     axis -90 -7.62852e-016 -20   XYZ
    dof rx
    limits (-90.0 20.0)
  end
  begin
     id 11 
     name lowerback
     direction -0.0110203 0.991769 -0.127564   
     length 2.05686   
     axis 0 0 0   XYZ
    dof rx ry rz
    limits (-20.0 45.0)
           (-30.0 30.0)
           (-30.0 30.0)
  end
  begin
     id 12 
     name upperback
     direction 0.0109719 0.99993 -0.00432479   
     length 2.06234   
     axis 0 0 0   XYZ
    dof rx ry rz
    limits (-20.0 45.0)
           (-30.0 30.0)
           (-30.0 30.0)
  end
  begin
     id 13 
     name thorax
     direction 0.0173308 0.998351 0.0547306   
     length 2.09856   
     axis 0 0 0   XYZ
    dof rx ry rz
    limits (-20.0 45.0)
           (-30.0 30.0)
           (-30.0 30.0)
  end
  begin
     id 14 
     name lowerneck
     direction -0.0311736 0.989033 0.144366   
     length 1.98151   
     axis 0 0 0   XYZ
    dof rx ry rz
    limits (-20.0 45.0)
           (-30.0 30.0)
           (-30.0 30.0)
  end
  begin
     id 15 
     name upperneck
     direction 0.0421057 0.975772 -0.214698   
     length 2.01457   
     axis 0 0 0   XYZ
    dof rx ry rz
    limits (-20.0 45.0)
           (-30.0 30.0)
           (-30.0 30.0)
  end
  begin
     id 16
     name head
     direction 0.0136911 0.995958 -0.0887718  
     length 2.03562  
     axis 0 0 0   XYZ
    dof rx ry rz
    limits (-20.0 45.0)
           (-30.0 30.0)
           (-30.0 30.0)
  end
  begin
     id 17 
     name lclavicle
     direction 0.915335 0.396201 0.0720134  
     length 4.16217  
     axis 0 0 0   XYZ
    dof ry rz
    limits (-20.0 10.0)
           (0.0 20.0)
  end
  begin
     id 18 
     name lhumerus
     direction 1 -4.48965e-011 6.383e-018   
     length 4.93042   
     axis -180 -30 -90   XYZ
    dof rx ry rz
    limits (-60.0 90.0)
           (-90.0 90.0)
           (-90.0 90.0)
  end
  begin
     id 19
     name lradius
     direction 1 -4.48972e-011 8.8689e-027   
     length 3.68177   
     axis -180 -30 -90   XYZ
    dof rx
    limits (-10.0 170.0)
  end
  begin
     id 20
     name lwrist
     direction 1 -4.48953e-011 1.17971e-026   
     length 1.84089   
     axis -7.69454e-015 90 90   XYZ
    dof ry
    limits (-180.0 0.0)
 end
  begin
     id 21 
     name lhand
     direction 1 -4.49027e-011 2.35802e-026   
     length 0.721479   
     axis -1.50533e-014 90 90   XYZ
    dof rx rz
    limits (-90.0 90.0)
           (-45.0 45.0)
  end
  begin
     id 22 
     name lfingers
     direction 1 -4.48915e-011 4.72027e-026   
     length 0.581675   
     axis -3.01059e-014 90 90   XYZ
    dof rx
    limits (0.0 90.0)
  end
  begin
     id 23
     name lthumb
     direction 0.707107 -6.34948e-011 0.707107   
     length 0.835172   
     axis -90 45 -5.12164e-014   XYZ
    dof rx rz
    limits (-45.0 45.0)
           (-45.0 45.0)
  end
  begin
     id 24 
     name rclavicle
     direction -0.882781 0.469197 0.0234974   
     length 3.95647  
     axis 0 0 0   XYZ 
    dof ry rz
    limits (-10.0 20.0)
           (-20.0 0.0)
  end
  begin
     id 25 
     name rhumerus
     direction -1 -4.48965e-011 -1.54906e-018  
     length 5.07905   
     axis -180 30 90   XYZ
    dof rx ry rz
    limits (-90.0 60.0)
           (-90.0 90.0)
           (-90.0 90.0)
  end
  begin
     id 26 
     name rradius
     direction -1 -4.48972e-011 5.47489e-027   
     length 3.54394   
     axis -180 30 90   XYZ
    dof rx
    limits (-10.0 170.0)
  end
  begin
     id 27 
     name rwrist
     direction -1 -4.48955e-011 1.17969e-026   
     length 1.77197   
     axis -7.69454e-015 -90 -90   XYZ
    dof ry
    limits (-180.0 0.0)
  end
  begin
     id 28
     name rhand
     direction -1 -4.48982e-011 2.35888e-026   
     length 0.681156   
     axis -1.50533e-014 -90 -90   XYZ
    dof rx rz
    limits (-90.0 90.0)
           (-45.0 45.0)
  end
  begin
     id 29
     name rfingers
     direction -1 -4.48955e-011 4.71877e-026   
     length 0.549165   
     axis -3.01059e-014 -90 -90   XYZ
    dof rx
    limits (0.0 90.0)
  end
  begin
     id 30
     name rthumb
     direction -0.707107 -6.3491e-011 0.707107   
     length 0.788495   
     axis -90 -45 5.12164e-014   XYZ
    dof rx rz
    limits (-45.0 45.0)
           (-45.0 45.0)
  end
:hierarchy
  begin
    root lhipjoint rhipjoint lowerback
    lhipjoint lfemur
    lfemur ltibia
    ltibia lfoot
    lfoot ltoes
    rhipjoint rfemur
    rfemur rtibia
    rtibia rfoot
    rfoot rtoes
    lowerback upperback
    upperback thorax
    thorax lowerneck lclavicle rclavicle
    lowerneck upperneck
    upperneck head
    lclavicle lhumerus
    lhumerus lradius
    lradius lwrist
    lwrist lhand lthumb
    lhand lfingers
    rclavicle rhumerus
    rhumerus rradius
    rradius rwrist
    rwrist rhand rthumb
    rhand rfingers
  end

#!OML:ASF H:\Bending\Project 1\Capture day 1\Session 1\Subject.ASF
:FULLY-SPECIFIED
:DEGREES
202
root -11.849 18.0761 -16.3428 -141.52 85.6997 -160.659
lowerback 30.0171 -1.68789 2.5537
upperback 5.7217 -0.358883 3.37311
thorax -10.0794 0.0503367 2.44687
lowerneck -30.4661 -2.80751 -4.46524
upperneck 15.567 -2.92437 4.33162
head 9.99411 -1.06319 1.78457
rclavicle 4.33351e-014 2.5842e-014
rhumerus -12.0978 13.9758 -88.1992
rradius 63.8556
rwrist -7.6536
rhand -28.3186 -21.0137
rfingers 7.12502
rthumb -1.69358 -50.9867
lclavicle 4.33351e-014 2.5842e-014
lhumerus -16.5732 -38.7201 94.624
lradius 67.3254
lwrist 36.9785
lhand -38.9836 7.55498
lfingers 7.12502
lthumb -11.9879 37.1917
rfemur -26.7415 -5.22481 14.1839
rtibia 15.95
rfoot -5.63163 -15.455
rtoes -9.75168
lfemur -36.6416 -4.63072 -6.26375
ltibia 27.9437
lfoot -11.6913 3.0635
ltoes -23.8022
203
root -11.7835 18.0895 -16.3465 -141.202 85.6693 -159.612
lowerback 28.8526 -1.71636 2.56657
upperback 5.3131 -0.496457 3.33552
thorax -9.96639 -0.0368792 2.43043
lowerneck -30.6453 -2.99855 -4.65387
upperneck 16.7868 -3.2153 4.60476
head 10.494 -1.1713 1.87173
rclavicle 8.74653e-015 -7.15625e-015
rhumerus -14.4669 14.4259 -88.3918
rradius 64.9313
rwrist -7.52385
rhand -28.194 -21.7657
rfingers 7.12502
rthumb -1.57328 -51.7396
lclavicle 8.74653e-015 -7.15625e-015
lhumerus -19.3184 -38.8955 96.4639
lradius 68.1595
lwrist 37.2024
lhand -39.8236 7.47477
lfingers 7.12502
lthumb -12.7977 37.0625
rfemur -24.7397 -4.83342 14.127
rtibia 14.3006
rfoot -5.18524 -15.7152
rtoes -9.98369
lfemur -35.3067 -5.26586 -6.1184
ltibia 27.4577
lfoot -11.9808 3.49605
ltoes -23.3762
204
root -11.7145 18.1032 -16.351 -141.119 85.6322 -158.867
lowerback 27.5273 -1.75966 2.5666
upperback 4.96853 -0.663673 3.29132
thorax -9.68751 -0.136845 2.41496
lowerneck -30.8873 -3.18089 -4.78781
upperneck 17.9116 -3.5095 4.86276
head 10.9774 -1.27444 1.94471
rclavicle 3.97569e-015 -1.11319e-014
rhumerus -16.686 15.0599 -88.5064
rradius 66.0295
rwrist -7.56003
rhand -27.9783 -22.1321
rfingers 7.12502
rthumb -1.36497 -52.1075
lclavicle 3.97569e-015 -1.11319e-014
lhumerus -21.7899 -38.8051 98.0745
lradius 68.9871
lwrist 37.418
lhand -40.376 7.2415
lfingers 7.12502
lthumb -13.3302 36.7951
rfemur -22.6709 -4.3357 14.0207
rtibia 12.4361
rfoot -4.68682 -16.0654
rtoes -9.94963
lfemur -34.0189 -5.93218 -6.00152
ltibia 26.9345
lfoot -12.2661 3.97671
ltoes -23.2298
205
root -11.6422 18.1172 -16.3547 -141.113 85.5919 -158.272
lowerback 26.1774 -1.79625 2.5617
upperback 4.60946 -0.825173 3.233
thorax -9.40121 -0.234934 2.38008
lowerneck -31.0573 -3.34235 -4.84929
upperneck 18.8588 -3.79644 5.08438
head 11.3877 -1.37179 1.99345
rclavicle 6.36111e-015 -5.96354e-015
rhumerus -18.8295 15.8245 -88.582
rradius 67.1207
rwrist -7.78366
rhand -27.6874 -22.1811
rfingers 7.12502
rthumb -1.08402 -52.1581
lclavicle 6.36111e-015 -5.96354e-015
lhumerus -24.126 -38.6146 99.5057
lradius 69.8217
lwrist 37.6212
lhand -40.658 6.94629
lfingers 7.12502
lthumb -13.6021 36.4819
rfemur -20.4911 -3.66474 13.8717
rtibia 10.2613
rfoot -4.11143 -16.5632
rtoes -9.50648
lfemur -32.7906 -6.60307 -5.89983
ltibia 26.393
lfoot -12.5525 4.48097
ltoes -23.4068
206
root -11.5669 18.131 -16.3558 -140.983 85.5572 -157.606
lowerback 24.8678 -1.80119 2.55866
upperback 4.21985 -0.941961 3.16392
thorax -9.15997 -0.312622 2.31604
lowerneck -31.0973 -3.48652 -4.85525
upperneck 19.5746 -4.07128 5.26147
head 11.6902 -1.46567 2.01722
rclavicle -2.0276e-014 -2.14687e-014
rhumerus -20.8947 16.656 -88.6218
rradius 68.1813
rwrist -8.16044
rhand -27.4401 -22.0496
rfingers 7.12502
rthumb -0.845119 -52.0277
lclavicle -2.0276e-014 -2.14687e-014
lhumerus -26.3716 -38.4905 100.808
lradius 70.666
lwrist 37.8514
lhand -40.7659 6.68733
lfingers 7.12502
lthumb -13.706 36.216
rfemur -18.0864 -3.58075 13.9632
rtibia 7.55989
rfoot -3.45881 -16.4071
rtoes -8.64487
lfemur -31.599 -7.27534 -5.79218
ltibia 25.8335
lfoot -12.8448 5.00214
ltoes -23.8184
207
root -11.4928 18.1433 -16.3551 -139.521 85.625 -155.727
lowerback 23.5754 -1.71614 2.55573
upperback 3.77145 -0.940265 3.08949
thorax -8.98499 -0.335591 2.20964
lowerneck -30.9932 -3.61754 -4.8385
upperneck 20.069 -4.3231 5.38854
head 11.8822 -1.55619 2.02076
rclavicle -2.70347e-014 -5.84427e-014
rhumerus -22.8992 17.5118 -88.6304
rradius 69.2138
rwrist -8.62274
rhand -26.8944 -21.8946
rfingers 7.12502
rthumb -0.318077 -51.8741
lclavicle -2.70347e-014 -5.84427e-014
lhumerus -28.5638 -38.5184 102.056
lradius 71.5229
lwrist 38.1485
lhand -40.8268 6.52407
lfingers 7.12502
lthumb -13.7647 36.0487
rfemur -15.0528 -3.39183 14.0189
rtibia 3.36963
rfoot -2.09305 -16.1784
rtoes -7.60312
lfemur -30.5046 -7.88669 -5.63428
ltibia 25.2745
lfoot -13.1605 5.60244
ltoes -24.2496
208
root -11.4141 18.1527 -16.3514 -139.1 85.6114 -154.771
lowerback 22.5147 -1.6485 2.57792
upperback 3.32418 -0.93304 3.0276
thorax -8.92165 -0.353144 2.10871
lowerneck -30.788 -3.7323 -4.82951
upperneck 20.4038 -4.53017 5.45529
head 11.9912 -1.63797 2.00956
rclavicle 7.35503e-015 1.00983e-013
rhumerus -24.8591 18.3887 -88.6143
rradius 70.2407
rwrist -9.10651
rhand -25.9668 -21.7665
rfingers 7.12502
rthumb 0.577827 -51.7455
lclavicle 7.35503e-015 1.00983e-013
lhumerus -30.6943 -38.6725 103.297
lradius 72.3977
lwrist 38.5115
lhand -40.9421 6.46463
lfingers 7.12502
lthumb -13.8758 35.9817
rfemur -12.2734 -3.3079 14.0281
rtibia 1.35174e-014
rfoot -1.19624 -16.0369
rtoes -6.43769
lfemur -29.3054 -8.65102 -5.49561
ltibia 24.7364
lfoot -13.5194 6.18085
ltoes -24.5307
209
root -11.3322 18.158 -16.3457 -139.667 85.54 -154.723
lowerback 21.598 -1.60471 2.59847
upperback 2.89311 -0.940881 2.99124
thorax -8.90935 -0.374622 2.04546
lowerneck -30.5534 -3.81792 -4.84322
upperneck 20.6678 -4.66429 5.44905
head 12.0613 -1.70053 1.98735
rclavicle 1.2921e-014 2.0276e-014
rhumerus -26.7918 19.3129 -88.5911
rradius 71.2917
rwrist -9.57489
rhand -25.0667 -21.6456
rfingers 7.12502
rthumb 1.44717 -51.6204
lclavicle 1.2921e-014 2.0276e-014
lhumerus -32.7275 -38.8337 104.534
lradius 73.3004
lwrist 38.878
lhand -41.1456 6.47914
lfingers 7.12502
lthumb -14.072 35.9827
rfemur -11.1914 -3.28527 14.0819
rtibia 2.38542e-015
rfoot -1.91665 -16.1021
rtoes -5.36309
lfemur -28.0586 -9.53624 -5.39271
ltibia 24.2472
lfoot -13.9246 6.7332
ltoes -24.5117
210
root -11.2499 18.1596 -16.3403 -140.568 85.4796 -155.03
lowerback 20.6776 -1.5728 2.58873
upperback 2.47662 -0.964777 2.98388
thorax -8.87195 -0.400741 2.03522
lowerneck -30.3538 -3.85874 -4.87777
upperneck 20.9462 -4.7034 5.36431
head 12.1353 -1.73331 1.95662
rclavicle -2.06736e-014 2.0276e-014
rhumerus -28.7115 20.3098 -88.5893
rradius 72.3923
rwrist -10.0172
rhand -24.2035 -21.514
rfingers 7.12502
rthumb 2.28084 -51.4816
lclavicle -2.06736e-014 2.0276e-014
lhumerus -34.6258 -38.8505 105.733
lradius 74.248
lwrist 39.1413
lhand -41.3999 6.52608
lfingers 7.12502
lthumb -14.317 36.0125
rfemur -10.1308 -3.27503 14.1098
rtibia 4.29375e-014
rfoot -2.57859 -16.1788
rtoes -4.56532
lfemur -26.8624 -10.4417 -5.33557
ltibia 23.8106
lfoot -14.362 7.27573
ltoes -24.1446
